<svg width="256" height="256" viewBox="0 0 256 256" fill="none" xmlns="http://www.w3.org/2000/svg">
<rect width="256" height="256" rx="128" fill="black"/>
<g clip-path="url(#clip0_8_733)">
<path d="M153.738 143.123C175.905 104.731 182.167 66.8485 167.726 58.5107C153.285 50.1729 123.609 74.5368 101.442 112.929C79.276 151.321 73.0134 189.203 87.4545 197.541C101.896 205.879 131.572 181.515 153.738 143.123Z" stroke="white" stroke-width="8.54749" stroke-miterlimit="10"/>
<path d="M167.726 197.537C182.167 189.199 175.904 151.317 153.738 112.925C131.572 74.5327 101.895 50.1688 87.4543 58.5066C73.0132 66.8444 79.2758 104.727 101.442 143.119C123.609 181.511 153.285 205.875 167.726 197.537Z" stroke="white" stroke-width="8.54749" stroke-miterlimit="10"/>
<path d="M127.592 158.218C171.925 158.218 207.864 144.699 207.864 128.024C207.864 111.348 171.925 97.8301 127.592 97.8301C83.2594 97.8301 47.3206 111.348 47.3206 128.024C47.3206 144.699 83.2594 158.218 127.592 158.218Z" stroke="white" stroke-width="8.54749" stroke-miterlimit="10"/>
</g>
<defs>
<clipPath id="clip0_8_733">
<rect width="171.635" height="153" fill="white" transform="translate(42 51)"/>
</clipPath>
</defs>
</svg>
